<?xml version="1.0" encoding="UTF-8"?>
<svg id="Layer_2" data-name="Layer 2" xmlns="http://www.w3.org/2000/svg" viewBox="0 0 87.11 57.02">
  <defs>
    <style>
      .cls-1 {
        fill: #1e1e1e;
      }
    </style>
  </defs>
  <g id="Layer_1-2" data-name="Layer 1">
    <g>
      <g>
        <path class="cls-1" d="m11.78,20.89c-.6,0-.94-.17-.94-.87v-8.81l1.69-1.82,8.24,10.73c.47.61-.41.77-.51.77v.13h3.03v-.13c-.57,0-.81-.3-1.18-.74l-9.38-10.96L20.63.74c.37-.41.57-.61.91-.61h.17v-.13h-1.82v.13c.84,0,.83.29.64.5l-9.69,10.37V1.01c0-.71.34-.87.94-.87v-.13h-2.89v.13c.6,0,.94.17.94.87v19.01c0,.71-.34.87-.94.87v.13h2.89v-.13Z"/>
        <path class="cls-1" d="m34.69.98c-.29-.71.4-.84.8-.84v-.13h-2.94v.13c.39,0,.83.07,1.14,1.01l-7.37,19c-.22.58-.47.74-1.04.74v.13h1.78v-.13c-.13,0-.89.03-.6-.71l2.21-5.72h10.58l2.24,5.38c.11.27.13.5.06.68.36-.17.72-.33,1.11-.46L34.69.98Zm-5.98,13.35l5.04-13.01,5.44,13.01h-10.48Z"/>
        <path class="cls-1" d="m49.06,20.01V1.01c0-.8.71-.87.91-.87h1.01c1.1,0,1.58.92,1.61,1.95h.14V0h-8.34v2.09h.13c.04-1.04.52-1.95,1.61-1.95h1.01c.2,0,.91.07.91.87v18.85c.36.1.7.21,1.04.34,0-.06-.03-.11-.03-.18Z"/>
        <path class="cls-1" d="m63.9,0h-2.89v.13c.6,0,.94.17.94.87v13.81c0,3.63-1.58,6.16-5.01,6.16-.91,0-1.88-.2-2.65-.67-.34-.2-.93-.73-1.01-2.18h-.13v1.81c1.8,1.01,2.8,1.17,3.9,1.17,3.47,0,5.93-1.74,5.93-6.31V1.01c0-.71.33-.87.94-.87v-.13Z"/>
        <path class="cls-1" d="m67.79,14.46h3.97l.84,5.68c.11.74-.64.74-.77.74v.13h2.59v-.13c-.2,0-.68-.03-.8-.8l-2.89-19.11c-.1-.68.26-.84.67-.84v-.13h-2.46v.13c.13,0,.61.02.74.84l.03.2-2.94,18.96c-.09.58-.45.74-.99.74v.13h1.88v-.13c-.13,0-.87.04-.77-.61l.9-5.82Zm2-12.91l1.96,12.77h-3.93l1.97-12.77Z"/>
        <path class="cls-1" d="m47.09,37.21v.16c1-.16,1.95-.47,2.82-.94-.09-.07-.19-.12-.3-.17-.77.47-1.61.79-2.51.95Z"/>
        <path class="cls-1" d="m45.76,37.34c-1.12,0-1.96-.1-2.88-.48-.03.04-.05.08-.08.13.88.37,1.72.49,2.94.49.11,0,.22-.01.33-.02v-.14c-.11,0-.21.02-.32.02Z"/>
        <path class="cls-1" d="m48.04,19.85c-.74-.2-1.5-.31-2.3-.31-1.07,0-2.12.18-3.09.51l.04.09s.02.04.03.06c.91-.35,1.93-.55,3.02-.55.8,0,1.57.13,2.3.37,0,0,0,0,0-.01v-.16Z"/>
        <path class="cls-1" d="m42.13,36.51c-1.43-.79-2.7-2.02-3.7-2.7-2.08-1.42-4.83-2.13-7.39-2.13h-1.76l1.45-2.67c.65-1.19,1.69-2.41,2.67-2.9.55-.28,1.05-.37,1.26-.37v-.15c-1.4-.06-2.65-1-2.65-2.79,0-1.9,1.28-3.13,2.67-3.13,1.14,0,2.08.65,2.44,1.74l.32-.17c-.51-1.05-1.59-1.71-2.76-1.71-1.88,0-3.55,1.45-3.55,3.27,0,1.34.79,2.34,2.3,2.96-1.26.32-2.47,1.16-3.1,2.3l-2.08,3.78h3.27c2.22,0,4.98.83,6.82,2.08.79.54,2.35,1.97,3.69,2.7.13.07.25.13.37.19v-.17c-.1-.05-.18-.08-.28-.13Z"/>
        <path class="cls-1" d="m54.67,28.47c0-3.74-2.32-6.95-5.58-8.27.01.12.03.22.07.3.22.11.43.23.63.36.07,0,.13.02.21.02v.12c2.26,1.56,3.76,4.32,3.76,7.47s-1.5,5.95-3.78,7.53h.63c2.44-1.62,4.06-4.4,4.06-7.53Z"/>
        <path class="cls-1" d="m40.88,20.89c.38,0,.59-.15.66-.37-2.3,1.12-3.94,3.13-3.94,5.54,0,3.04,2.13,5.55,5.74,5.55,2.79,0,4.49-2.42,4.49-5.26,0-.74.63-.82.82-.82h1.34c.81,0,1.54.46,1.54,1.28h.11v-1.39h-7.76v1.39h.11c.03-.88.75-1.28,1.54-1.28h1.34c.2,0,.83.08.83.82,0,2.66-1.57,5.12-4.32,5.12-2.67-.03-4.86-2.13-4.86-5.4,0-2.12,1.02-3.89,2.65-5.03h-.29v-.13Z"/>
        <path class="cls-1" d="m42.65,20.05c-.38.13-.75.29-1.11.46-.08.23-.29.37-.66.37v.13h.29c.47-.33.99-.6,1.55-.82-.01-.02-.02-.04-.03-.06l-.04-.09Z"/>
        <path class="cls-1" d="m49.08,20.2c-.34-.14-.68-.25-1.04-.34v.16s0,0,0,.01c.39.13.76.29,1.11.47-.04-.08-.06-.19-.07-.3Z"/>
        <path class="cls-1" d="m49.79,20.87c.07.05.14.09.21.14v-.12c-.08,0-.14-.01-.21-.02Z"/>
        <path class="cls-1" d="m25.36,36.13c.6,0,.94.16.94.74l-11.73,18.37L2.32,36.98c-.46-.7.34-.84.77-.84v-.13H0v.13c.37,0,.71.17,1.21.98v19.07c.01.71-.61.71-.91.71v.13h1.95v-.13c-.3,0-.91,0-.91-.71v-18.87l13.22,19.71h1.22l-1.13-1.65,11.64-18.26v18.9c0,.71-.34.87-.94.87v.13h2.89v-.13c-.61,0-.94-.17-.94-.87v-19.01c0-.71.33-.87.94-.87v-.13h-2.89v.13Z"/>
        <path class="cls-1" d="m37.32,36.13c.6,0,.94.17.94.87v.41l-7.3,18.73c-.22.56-.59.74-.83.74v.13h1.52v-.13c-.13,0-.83,0-.55-.71l2.23-5.72h4.93v5.56c0,.71-.34.87-.94.87v.13h2.89v-.13c-.61,0-.94-.17-.94-.87v-19.01c0-.71.33-.87.94-.87v-.13h-2.89v.13Zm.94,14.19h-4.89l4.89-12.54v12.54Z"/>
        <path class="cls-1" d="m42.42,38.09h.13c.01-.4.1-.78.25-1.09-.13-.05-.26-.11-.39-.17v1.27Z"/>
        <path class="cls-1" d="m46.08,56.01c0,.71-.34.87-.94.87v.13h2.89v-.13c-.6,0-.94-.17-.94-.87v-18.65c-.33.05-.67.08-1.01.1v18.55Z"/>
        <path class="cls-1" d="m50.62,38.09h.14v-2.09h-.15c-.23.15-.46.29-.7.42.46.35.69.98.71,1.66Z"/>
        <path class="cls-1" d="m49.6,36.25c.11.04.21.1.3.17.24-.13.48-.27.7-.42h-.63c-.12.09-.24.18-.37.25Z"/>
        <path class="cls-1" d="m46.08,37.32v.14c.34-.01.68-.05,1.01-.1v-.16c-.33.06-.67.1-1.01.11Z"/>
        <path class="cls-1" d="m42.42,36.65v.17c.13.06.26.12.39.17.02-.05.05-.09.08-.13-.15-.06-.31-.14-.46-.22Z"/>
        <path class="cls-1" d="m52.9,38.09h.13c.04-1.04.52-1.95,1.61-1.95h1.01c.2,0,.91.07.91.87v19.01c0,.71-.34.87-.94.87v.13h2.89v-.13c-.6,0-.94-.17-.94-.87v-19.01c0-.8.71-.87.91-.87h1.01c1.1,0,1.58.92,1.61,1.95h.14v-2.09h-8.34v2.09Z"/>
        <path class="cls-1" d="m63.47,36.13c.6,0,.94.17.94.87v19.01c0,.71-.34.87-.94.87v.13h2.89v-.13c-.6,0-.94-.17-.94-.87v-19.01c0-.71.34-.87.94-.87v-.13h-2.89v.13Z"/>
        <path class="cls-1" d="m86.07,56.14l-8-19.17c-.29-.71.4-.84.8-.84v-.13h-2.94v.13c.39,0,.83.07,1.14,1.01l-7.36,19c-.23.58-.47.74-1.04.74v.13h1.78v-.13c-.14,0-.89.03-.6-.71l2.21-5.72h10.58l2.24,5.38c.26.62.08,1.05-.6,1.05v.13h2.85v-.13c-.52.03-.83-.25-1.04-.74Zm-13.99-5.82l5.04-13.01,5.44,13.01h-10.48Z"/>
      </g>
      <path d="m22.89,28.23l-4.32-.07-4.32.07v-.25l4.32.07,4.32-.07v.25Z"/>
      <path d="m69.89,28.23l-4.32-.07-4.32.07v-.25l4.32.07,4.32-.07v.25Z"/>
    </g>
  </g>
</svg>