<?xml version="1.0" encoding="UTF-8"?>
<svg id="Layer_2" data-name="Layer 2" xmlns="http://www.w3.org/2000/svg" viewBox="0 0 48.52 56.86">
  <defs>
    <style>
      .cls-1 {
        fill: #1e1e1e;
      }
    </style>
  </defs>
  <g id="Layer_1-2" data-name="Layer 1">
    <g>
      <path class="cls-1" d="m23.73,49.39c-3.08-.39-4.59-2.1-5.26-4.39-1.31-.37-2.57-.93-3.73-1.67-.58,2.13-2.25,3.85-4.35,3.57,1.39,1.86,5.65,1.11,5.65-.9,0,3.69,4.78,5.13,7.7,3.4Z"/>
      <path class="cls-1" d="m14.92,13.97c-1.03-1.28-2.55-2.08-4.2-2.2h-.05s-.07,0-.09-.01c-.12-.01-.25-.02-.37-.04-.15-.02-.31-.05-.46-.07-.16-.03-.31-.06-.45-.09-.15-.04-.29-.08-.43-.12,0,0-.01,0-.02,0-.28-.09-.54-.2-.78-.32-.06-.03-.12-.07-.18-.1-.06-.04-.12-.07-.18-.11-.14-.09-.27-.2-.39-.31-.59-.55-.92-1.33-.81-2.43-.81,1.07-.71,3.02.6,4.32h0s.1.09.1.09l.05.05h0c.12.11.26.21.41.3.03.02.05.04.08.05.11.07.22.13.34.19.17.09.36.17.56.24.21.08.43.14.67.2.22.06.46.11.7.15.19.03.38.06.58.09l.15.02c.75.09,1.5.11,2.16.09,1.12-.02,2.04.85,2.04,1.97v23.68c.88.83,1.9,1.53,3.02,2.08-.05-1.01-.47-9.12,0-11.9.24-1.43,1.13-2.56,2.07-3.21-1.13-.69-1.88-1.96-2.07-3.33-.33-2.34,0-9.48,0-9.48.44-3.24,2.26-7.72,6.11-8.53,5.33-1.13,8.68,2.68,8.42,10.27-.39,11.06-8.72,12.15-10.99,7.64-1.89-3.74.3-7.37,3.04-8.1,2.89-.77,4.2,2.69,1.21,4.49,3.7-.2,3.68-5.74.13-5.82,2.33-1.69-.02-3.64-1.22-3.63,1.01,1.28.77,2.53-.12,2.96-4.6,2.22-6.64,9.52-.34,13.52-.22-.14-5.8,2.56-3.77,7.74,2.17,5.52,10.24,4.63,10.71.53.25-2.15-3.23-3.34-4.51-2.2-.14.12-.25.36-.27.46-.1.43.17.86.6.96.43.1.87-.17.97-.6.05-.21,0-.42-.09-.58,1.37-.54,3.86,1.26,2.66,3.18-1.54,2.46-8.63,2.08-7.84-3.41.28-1.98,1.64-3.51,3.77-4.04,1.98-.49,5.2.24,6.01,3.43.88-3.15-.62-5.13-2.39-5.46,5.57-1.21,7.31-11.17,4.06-16.94-3.64-6.45-10.86-5.39-13.84-3.84-.23.12-.47.24-.72.38-2.87,1.54-4.66,4.54-4.66,7.8h0s0,0,0,0Z"/>
      <path class="cls-1" d="m37.46,5.47C32.37.11,22.75-1.55,16.44,1.56c-4.67,2.21-7.01,5.49-8.62,8.91.86.64,2.18.86,3.36.91,1.63-5.5,5.66-9.6,12.79-9.79,9.5-.07,13.83,6.86,14.18,15,.08,1.94.99,3.68,2.35,5.08.21.22.39.46.52.73,1.97-.35,1.79,3.4,0,2.8-.13.27-.31.51-.52.73-1.28,1.31-2.29,2.89-2.44,4.71-.91,11.21-11.78,15.11-19.63,11.71-1.42-.62-2.74-1.47-3.88-2.57-1.89-1.81-3.3-4.26-3.89-7.38-.44-2.37-1.26-4.74-2.91-6.49-.19-.21-.36-.44-.48-.69-2.14.35-2.14-3.15,0-2.8.06-.13.13-.25.22-.36,1.51-2.15,2.7-4.5,2.99-7.1.03-.24.06-.47.09-.7-1.33-.16-2.69-.54-3.57-1.32-.05-.05-.11-.1-.16-.15-1.75,4.41-2.9,8.72-6.83,11.02,5.2,3.97,7.62,14.11,14.46,18.85,1.28.88,2.71,1.58,4.34,2.01,1.32.35,2.78.53,4.39.49,5.53.33,7.81,10.65,1.01,11.45-1.51.12-3.11-1.38-3.36-2.36,1.58.16,1.68-2.37.09-2.35-1.33.01-1.4,1.52-1.03,2.48,1.65,4.23,11.12,3.37,10.37-4.99,1.51.73,3.95.41,4.69-1.38.55-1.3.23-2.5-1.07-3.27,1.19,4.81-8.39,1.02-8.66.13,18.01,0,14.3-17.72,23.28-21.07-7.94-5.64-4.58-12.07-11.05-18.34Z"/>
    </g>
  </g>
</svg>